<?xml version="1.0" standalone="no"?>
<!DOCTYPE svg PUBLIC "-//W3C//DTD SVG 20010904//EN"
 "http://www.w3.org/TR/2001/REC-SVG-20010904/DTD/svg10.dtd">
<svg version="1.0" xmlns="http://www.w3.org/2000/svg"
 width="924.000000pt" height="924.000000pt" viewBox="0 0 924.000000 924.000000"
 preserveAspectRatio="xMidYMid meet">
<metadata>
Created by potrace 1.14, written by Peter Selinger 2001-2017
</metadata>
<g transform="translate(0.000000,924.000000) scale(0.100000,-0.100000)"
fill="#000000" stroke="none">
<path d="M6518 9155 c-32 -19 -58 -32 -58 -28 0 3 -6 0 -14 -6 -16 -13 -233
-132 -321 -176 -33 -17 -62 -32 -65 -35 -3 -4 -36 -22 -75 -40 -38 -19 -72
-38 -75 -41 -3 -4 -43 -26 -90 -49 -47 -23 -86 -46 -88 -51 -2 -5 -10 -9 -17
-9 -8 0 -37 -13 -65 -30 -28 -16 -55 -30 -60 -30 -4 0 -10 -3 -12 -7 -1 -5
-41 -27 -88 -51 -47 -24 -103 -53 -125 -66 -22 -12 -87 -47 -145 -78 -58 -30
-139 -74 -180 -96 -41 -22 -99 -53 -129 -69 -30 -15 -58 -35 -64 -44 -11 -17
-14 -10 73 -174 29 -55 67 -127 84 -160 43 -82 59 -105 73 -105 14 0 75 32 84
43 3 5 13 9 21 11 9 1 22 7 29 12 8 6 37 22 64 35 28 13 52 26 55 30 3 3 25
15 50 28 65 33 210 111 245 131 17 9 71 39 120 65 50 26 142 76 205 110 63 34
156 84 205 110 50 26 113 60 140 75 28 15 79 43 115 62 36 20 97 53 135 73 39
21 114 62 169 90 54 29 102 59 106 66 5 8 1 29 -9 49 -37 73 -76 146 -98 183
-13 20 -21 37 -17 37 3 0 -3 12 -13 28 -10 15 -32 53 -48 84 -17 32 -37 58
-45 58 -8 0 -41 -16 -72 -35z"/>
<path d="M7295 8811 c-11 -9 -83 -50 -160 -90 -27 -14 -53 -30 -57 -36 -4 -5
-8 -6 -8 -2 0 5 -12 0 -27 -11 -16 -10 -45 -26 -65 -35 -20 -10 -40 -22 -43
-27 -3 -6 -15 -10 -25 -10 -10 0 -20 -4 -22 -8 -3 -7 -116 -69 -433 -237 -49
-27 -119 -65 -155 -85 -36 -19 -82 -44 -102 -53 -20 -10 -40 -22 -43 -27 -4
-6 -10 -8 -15 -5 -5 3 -11 1 -14 -4 -4 -5 -43 -28 -89 -52 -45 -23 -84 -45
-87 -48 -3 -3 -12 -7 -20 -9 -8 -2 -22 -10 -31 -18 -8 -8 -19 -14 -23 -14 -3
0 -149 -77 -324 -172 -174 -94 -346 -187 -382 -205 -36 -19 -92 -49 -125 -67
-33 -18 -96 -52 -140 -75 -122 -66 -118 -56 -60 -169 28 -53 52 -99 55 -102 3
-3 25 -45 50 -95 24 -49 47 -92 51 -95 3 -3 8 -13 12 -22 9 -24 26 -23 83 8
27 15 74 40 104 56 30 16 100 54 155 84 55 30 114 62 130 70 17 8 66 35 110
59 44 24 101 54 128 67 26 12 47 27 47 31 0 5 4 6 9 3 5 -3 14 1 21 9 7 8 16
15 21 15 5 0 48 22 96 48 49 27 129 70 178 97 50 26 146 78 215 116 134 73
224 121 360 193 47 25 117 63 155 84 39 21 115 62 170 92 55 29 127 69 160 87
33 18 85 46 115 61 30 14 57 29 60 32 3 4 34 21 69 39 104 54 135 72 155 91
18 17 17 20 -19 86 -21 38 -62 114 -90 169 -96 183 -97 185 -120 185 -11 0
-25 -4 -30 -9z"/>
<path d="M3575 8594 c-22 -13 -51 -29 -65 -36 -90 -45 -266 -143 -272 -152 -4
-6 -8 -8 -8 -4 0 4 -39 -15 -86 -42 -47 -28 -87 -50 -88 -50 -3 0 -286 -157
-306 -170 -8 -5 -48 -26 -87 -47 -40 -20 -73 -41 -73 -45 0 -4 -5 -8 -11 -8
-7 0 -50 -22 -98 -49 -90 -51 -116 -65 -296 -164 -60 -33 -113 -65 -117 -71
-4 -6 -8 -7 -8 -2 0 5 -6 4 -12 -2 -7 -5 -49 -29 -93 -53 -44 -23 -82 -45 -85
-48 -3 -4 -30 -19 -60 -34 -30 -15 -77 -41 -105 -57 -27 -16 -75 -42 -105 -58
-63 -34 -103 -56 -177 -100 -29 -17 -53 -29 -53 -25 0 3 -8 -1 -17 -9 -10 -8
-49 -32 -88 -53 -38 -21 -101 -55 -138 -76 -38 -22 -73 -39 -77 -39 -5 0 -10
-3 -12 -7 -1 -5 -23 -18 -48 -31 -25 -12 -72 -38 -105 -58 -33 -19 -79 -44
-102 -55 -55 -27 -93 -63 -93 -88 0 -11 13 -43 30 -71 16 -28 30 -55 30 -60 0
-4 3 -10 8 -12 4 -1 21 -29 37 -62 17 -32 39 -75 50 -95 11 -20 42 -76 69
-124 26 -48 58 -95 71 -103 21 -14 27 -13 68 8 116 59 193 101 208 114 8 8 19
14 23 14 4 0 41 20 84 44 42 23 102 57 132 73 121 67 196 108 225 122 16 9 35
22 43 29 7 7 17 10 22 7 5 -3 10 -2 12 3 2 6 364 208 583 326 11 6 22 13 25
16 3 3 21 13 40 24 68 36 165 89 205 111 22 13 56 31 75 42 19 11 62 35 95 53
33 19 76 42 95 52 19 10 53 29 75 41 22 13 76 43 120 66 44 24 85 47 90 51 11
8 175 96 220 119 17 8 32 17 35 20 3 4 34 22 70 40 36 19 95 51 132 72 36 22
71 39 77 39 6 0 11 5 11 10 0 6 4 10 9 10 4 0 49 23 99 50 68 39 93 58 100 79
6 16 7 33 2 37 -4 5 -22 36 -40 69 -80 148 -94 173 -123 225 -17 30 -40 73
-51 95 -12 22 -27 46 -33 53 -7 7 -13 19 -13 26 0 20 -32 42 -60 43 -14 0 -43
-10 -65 -23z"/>
<path d="M7605 8220 c-3 -5 -21 -17 -38 -25 -18 -8 -54 -27 -82 -43 -46 -26
-113 -63 -290 -157 -38 -21 -124 -67 -190 -103 -66 -35 -154 -83 -195 -105
-41 -22 -102 -54 -135 -72 -59 -32 -128 -69 -262 -141 -38 -20 -90 -49 -118
-64 -27 -15 -84 -45 -125 -67 -41 -22 -115 -62 -165 -89 -130 -71 -181 -98
-265 -142 -41 -21 -91 -48 -110 -59 -19 -11 -75 -41 -125 -68 -49 -27 -124
-67 -166 -89 -41 -23 -101 -54 -132 -71 -31 -16 -67 -37 -79 -46 l-22 -17 38
-73 c21 -41 55 -105 76 -144 21 -38 54 -103 75 -142 21 -40 45 -73 52 -73 8 0
40 14 71 31 62 34 141 77 272 147 47 24 103 55 125 67 65 36 176 96 230 124
28 14 53 30 57 36 4 5 8 7 8 3 0 -3 37 15 83 41 45 25 101 55 124 66 24 11 43
23 43 28 0 4 9 7 19 7 11 0 23 5 26 10 3 6 23 18 43 28 20 10 69 36 107 57 39
21 108 58 155 83 47 24 99 53 115 62 17 10 71 39 120 65 50 26 113 60 140 75
28 15 78 43 113 61 35 19 80 43 100 54 161 88 253 136 258 135 4 -1 10 2 13 7
3 5 49 32 101 59 52 27 97 51 100 54 3 3 27 16 54 30 26 14 50 30 53 37 3 7
-26 70 -63 140 -37 70 -87 164 -110 208 -33 64 -47 81 -67 83 -14 2 -28 -2
-32 -8z"/>
<path d="M7535 7437 c-27 -19 -354 -196 -405 -220 -8 -4 -28 -15 -45 -25 -34
-21 -229 -125 -290 -155 -22 -11 -42 -22 -45 -26 -6 -8 -72 -38 -84 -39 -5 0
-12 -4 -15 -9 -7 -10 -20 -17 -158 -89 -60 -31 -128 -68 -153 -82 -25 -15 -72
-40 -105 -57 -33 -17 -103 -54 -155 -82 -277 -148 -268 -142 -246 -184 19 -36
108 -204 156 -294 23 -44 49 -86 56 -94 15 -16 18 -15 174 70 41 22 107 57
145 77 39 20 72 39 75 42 3 3 32 19 65 36 76 39 225 118 290 154 28 15 86 47
130 70 44 24 94 51 110 60 17 9 84 45 150 80 66 35 128 70 138 78 9 8 17 12
17 7 0 -4 6 -3 13 3 6 5 41 25 77 45 36 19 106 56 155 82 252 136 240 124 206
187 -13 24 -50 93 -82 153 -111 211 -116 220 -135 223 -11 1 -28 -4 -39 -11z"/>
<path d="M3603 7321 c-29 -16 -53 -27 -53 -24 0 3 -6 1 -13 -5 -10 -9 -316
-179 -437 -244 -19 -10 -66 -37 -105 -59 -38 -22 -78 -43 -87 -46 -10 -3 -18
-9 -18 -14 0 -5 -9 -9 -19 -9 -11 0 -21 -4 -23 -8 -1 -5 -37 -27 -78 -49 -175
-94 -235 -127 -240 -132 -3 -3 -43 -26 -90 -50 -47 -24 -90 -48 -96 -53 -7 -5
-47 -27 -90 -50 -44 -22 -82 -45 -85 -50 -3 -5 -12 -10 -20 -12 -8 -1 -25 -9
-39 -17 -21 -13 -452 -252 -555 -308 -16 -9 -32 -18 -35 -21 -3 -3 -32 -18
-65 -35 -33 -16 -62 -32 -65 -36 -8 -9 -213 -119 -222 -119 -4 0 -8 -4 -8 -10
0 -5 -4 -10 -10 -10 -10 0 -166 -85 -289 -157 -40 -24 -77 -43 -81 -43 -19 0
-60 -44 -60 -63 0 -22 3 -28 60 -132 18 -33 43 -78 54 -100 12 -22 23 -42 26
-45 3 -3 16 -25 29 -50 96 -184 114 -213 124 -203 4 3 7 1 7 -5 0 -19 50 -3
130 43 42 25 82 45 88 45 6 0 12 4 14 9 2 4 35 25 73 45 169 90 220 119 223
127 2 5 10 9 18 9 8 0 31 10 52 23 20 13 44 27 52 30 8 4 29 15 45 25 17 10
68 39 115 64 47 25 114 62 148 82 35 20 68 36 73 36 5 0 9 5 9 10 0 6 3 9 8 8
4 -1 18 4 32 12 53 30 87 48 130 71 25 12 47 25 50 28 3 3 23 16 45 28 22 11
56 30 75 40 19 11 62 35 95 53 33 18 156 86 273 151 117 66 217 119 222 119 6
0 10 3 10 8 0 4 15 14 33 21 17 8 57 29 87 46 30 18 87 49 125 70 98 54 160
88 282 156 58 32 118 64 134 71 16 7 29 16 29 20 0 5 5 8 10 8 6 0 71 34 144
76 107 59 136 81 144 103 6 16 6 33 2 37 -5 5 -23 36 -41 69 -148 277 -230
420 -246 433 -25 18 -42 15 -100 -17z"/>
<path d="M3610 6059 c-120 -64 -232 -125 -275 -149 -22 -13 -69 -38 -105 -58
-36 -19 -95 -52 -132 -73 -36 -22 -71 -39 -77 -39 -6 0 -11 -4 -11 -9 0 -5 -9
-13 -20 -16 -12 -4 -84 -42 -162 -86 -78 -43 -143 -79 -144 -79 -2 0 -25 -13
-51 -28 -26 -16 -79 -45 -116 -66 -37 -20 -84 -46 -105 -57 -20 -12 -55 -31
-77 -42 -22 -12 -42 -24 -45 -27 -3 -3 -18 -12 -35 -20 -16 -8 -32 -17 -35
-20 -3 -3 -27 -16 -55 -30 -27 -14 -65 -35 -84 -47 -18 -13 -37 -21 -41 -18
-5 3 -10 2 -12 -3 -3 -8 -52 -37 -148 -90 -30 -16 -73 -39 -95 -52 -22 -12
-105 -58 -185 -102 -80 -44 -152 -84 -160 -88 -52 -30 -245 -138 -297 -166
-33 -18 -99 -55 -145 -81 -45 -27 -109 -62 -141 -78 -102 -52 -127 -91 -93
-140 7 -11 28 -47 45 -80 18 -33 36 -67 41 -75 22 -35 150 -273 150 -279 1
-15 41 -52 60 -56 21 -4 79 24 203 97 26 15 50 28 52 28 2 0 30 15 62 34 56
32 106 59 263 145 41 22 82 45 90 51 8 5 35 20 60 33 25 13 70 38 100 54 30
17 96 53 147 81 51 28 127 70 170 93 43 23 83 46 88 50 6 4 35 21 65 37 30 16
91 49 135 74 44 25 105 59 135 76 30 16 114 62 185 102 172 96 411 227 510
280 44 24 85 46 90 50 9 7 71 41 167 93 24 13 63 35 88 49 25 14 72 40 105 58
137 75 220 124 232 136 20 19 16 50 -13 102 -25 44 -41 73 -115 210 -18 31
-45 82 -62 112 -16 30 -40 72 -51 94 -18 33 -50 57 -74 56 -4 -1 -41 -19 -82
-41z"/>
<path d="M8045 6016 c-142 -76 -220 -118 -351 -192 -64 -35 -120 -64 -125 -64
-5 0 -9 -4 -9 -10 0 -5 -5 -10 -10 -10 -6 0 -61 -28 -123 -63 -62 -34 -129
-71 -149 -82 -21 -11 -38 -23 -38 -28 0 -4 -4 -6 -9 -2 -5 3 -16 -2 -24 -10
-9 -8 -18 -15 -22 -15 -4 0 -50 -25 -102 -55 -53 -30 -98 -55 -99 -55 -2 0
-67 -36 -145 -80 -77 -44 -142 -80 -144 -80 -2 0 -27 -14 -55 -30 -28 -17 -79
-45 -113 -64 -91 -49 -158 -86 -192 -106 -16 -10 -50 -29 -75 -42 -25 -14 -63
-35 -85 -48 -22 -12 -66 -37 -98 -54 -94 -50 -114 -62 -141 -80 -14 -9 -26
-13 -26 -9 0 5 -4 4 -8 -2 -7 -11 -18 -17 -110 -67 -31 -16 -59 -33 -62 -37
-3 -3 -10 -7 -16 -8 -5 -1 -50 -25 -100 -53 -49 -29 -98 -56 -109 -61 -11 -5
-47 -25 -80 -44 -33 -19 -84 -47 -114 -62 -100 -52 -120 -87 -83 -148 10 -16
34 -59 54 -95 20 -36 48 -87 64 -115 70 -126 106 -192 119 -220 7 -17 25 -37
38 -44 23 -12 32 -10 89 19 34 17 92 48 128 69 36 20 97 54 135 76 39 21 88
49 110 62 22 12 47 26 55 30 8 4 96 51 195 106 99 55 209 115 245 134 36 20
70 39 75 43 6 4 49 28 97 53 47 26 103 56 125 68 87 50 130 74 168 96 22 12
47 26 55 29 8 4 44 24 80 44 86 49 154 87 215 120 28 15 70 38 95 52 182 103
322 178 330 178 6 0 10 3 10 8 0 4 17 15 38 24 20 10 62 32 92 49 30 17 125
70 210 117 85 47 171 94 190 105 38 21 152 83 186 102 32 17 54 42 54 62 0 20
-59 139 -92 186 -11 15 -17 27 -13 27 3 0 -6 17 -20 37 -14 21 -25 41 -25 45
0 3 -22 45 -50 93 -27 48 -50 90 -50 94 0 15 -53 61 -69 61 -9 -1 -61 -25
-116 -54z"/>
<path d="M3605 4802 c-60 -31 -112 -60 -115 -63 -5 -6 -123 -70 -215 -118 -27
-14 -51 -29 -53 -33 -2 -5 -7 -8 -12 -8 -5 0 -56 -27 -114 -60 -58 -33 -110
-60 -115 -60 -5 0 -11 -3 -13 -7 -1 -5 -25 -19 -53 -33 -27 -14 -52 -27 -55
-30 -3 -3 -18 -12 -35 -20 -16 -8 -32 -17 -35 -20 -3 -3 -19 -12 -35 -21 -91
-47 -141 -75 -153 -86 -7 -7 -17 -13 -22 -13 -4 0 -39 -17 -77 -39 -37 -21
-89 -50 -115 -64 -26 -15 -83 -46 -125 -70 -43 -24 -109 -61 -148 -82 -38 -21
-185 -102 -325 -180 -140 -79 -280 -156 -310 -172 -30 -17 -113 -63 -185 -103
-71 -40 -157 -87 -190 -105 -217 -119 -307 -173 -320 -192 -17 -24 -14 -30
141 -309 46 -84 84 -158 84 -163 0 -6 3 -11 8 -11 4 0 13 -14 21 -31 7 -17 23
-35 36 -41 29 -13 42 -7 297 136 90 49 143 79 223 122 44 24 87 48 95 54 8 5
40 22 70 38 30 16 71 38 90 49 43 24 103 57 295 163 177 98 218 120 267 148
29 17 376 209 548 305 19 10 40 23 46 28 6 5 14 6 17 2 4 -3 7 -2 7 3 0 5 20
18 45 29 25 11 45 23 45 28 0 4 4 7 10 7 5 0 70 34 144 75 74 41 139 75 144
75 6 0 12 4 14 8 2 5 44 30 93 57 50 26 108 58 130 71 40 22 117 65 185 100
19 11 37 21 40 24 3 3 16 11 30 18 146 72 159 92 110 184 -50 95 -55 103 -60
108 -3 3 -13 21 -22 40 -10 19 -38 71 -63 115 -25 44 -54 98 -65 120 -50 98
-64 100 -205 27z"/>
<path d="M8120 4760 c-30 -16 -122 -66 -205 -111 -82 -45 -172 -94 -200 -108
-27 -14 -51 -29 -53 -33 -2 -5 -7 -8 -12 -8 -5 0 -56 -27 -114 -60 -58 -33
-110 -60 -116 -60 -5 0 -10 -4 -10 -10 0 -5 -5 -10 -10 -10 -6 0 -67 -32 -138
-72 -70 -39 -145 -81 -167 -92 -22 -12 -46 -27 -53 -33 -7 -7 -17 -13 -22 -13
-4 0 -75 -38 -157 -83 -147 -83 -210 -118 -320 -178 -32 -18 -88 -49 -125 -70
-36 -22 -71 -39 -77 -39 -6 0 -11 -4 -11 -8 0 -5 -16 -14 -35 -22 -19 -8 -35
-17 -35 -22 0 -4 -3 -7 -7 -6 -5 1 -19 -4 -33 -12 -68 -38 -88 -50 -120 -67
-87 -48 -179 -99 -223 -125 -26 -15 -49 -28 -51 -28 -2 0 -46 -24 -97 -53 -52
-29 -125 -71 -164 -92 -38 -21 -88 -48 -110 -61 -22 -12 -67 -37 -100 -54 -89
-48 -115 -69 -115 -93 0 -26 23 -71 152 -300 21 -38 38 -70 38 -72 0 -11 86
-152 99 -162 20 -15 52 -10 94 15 38 23 106 61 207 115 41 22 77 43 80 46 3 3
23 15 45 26 22 11 90 47 150 81 61 34 142 78 180 99 154 84 501 276 515 285 8
5 41 23 73 40 32 17 72 39 90 50 17 11 51 28 74 40 23 11 45 25 48 30 4 6 11
8 16 5 5 -4 9 -2 9 3 0 6 12 15 28 21 15 5 50 23 77 39 28 16 68 39 90 52 22
12 58 32 80 45 22 12 67 37 100 55 33 18 87 48 120 66 33 18 80 44 105 57 25
14 74 41 110 61 36 20 76 42 90 49 14 6 27 14 30 17 3 3 25 15 50 28 25 12 52
27 60 32 8 5 112 63 230 129 168 93 217 124 224 145 11 28 13 23 -76 185 -32
57 -58 107 -58 111 0 5 -3 10 -7 12 -5 2 -16 19 -25 38 -50 100 -99 183 -115
196 -26 19 -41 17 -103 -16z"/>
<path d="M4917 4280 c-172 -90 -254 -134 -262 -140 -5 -4 -35 -21 -65 -37 -30
-17 -87 -49 -127 -72 -39 -22 -89 -50 -110 -62 -81 -45 -179 -100 -193 -109
-61 -37 -142 -80 -150 -80 -6 0 -10 -4 -10 -10 0 -5 -4 -10 -10 -10 -5 0 -67
-33 -137 -73 -71 -41 -153 -88 -183 -104 -195 -109 -307 -174 -320 -185 -8 -7
-17 -12 -20 -12 -12 3 -111 -59 -119 -75 -13 -24 -5 -54 29 -111 16 -28 30
-53 30 -55 0 -2 13 -26 28 -52 25 -43 89 -160 139 -253 10 -19 21 -37 24 -40
3 -3 8 -13 12 -23 4 -9 17 -21 29 -26 23 -9 77 15 198 85 25 14 110 63 190
108 80 44 154 86 165 93 11 7 27 15 35 19 51 25 216 119 218 126 2 4 8 8 13 8
5 0 159 84 342 187 183 103 361 202 397 221 36 20 68 40 72 46 4 6 8 7 8 3 0
-5 12 0 28 10 55 37 67 44 84 49 16 6 28 24 34 53 3 15 -55 133 -68 139 -5 2
-8 7 -8 11 0 4 -32 65 -71 137 -39 71 -82 150 -95 175 -42 79 -67 90 -127 59z"/>
<path d="M8190 3583 c0 -5 -28 -21 -63 -38 -34 -16 -64 -32 -67 -35 -3 -3 -27
-17 -55 -31 -51 -26 -124 -66 -254 -138 -41 -23 -78 -41 -82 -41 -5 0 -9 -4
-9 -10 0 -5 -4 -10 -9 -10 -4 0 -147 -77 -317 -172 -170 -94 -327 -181 -349
-192 -22 -12 -42 -23 -45 -26 -3 -3 -27 -17 -55 -30 -27 -14 -54 -29 -60 -33
-10 -7 -237 -133 -375 -208 -93 -51 -113 -62 -132 -78 -10 -8 -18 -11 -18 -7
0 4 -7 0 -16 -8 -8 -9 -22 -16 -30 -16 -8 0 -14 -4 -14 -8 0 -4 -16 -14 -35
-21 -19 -7 -40 -18 -47 -24 -7 -7 -37 -23 -65 -37 -29 -14 -53 -28 -53 -32 0
-5 -9 -8 -19 -8 -11 0 -21 -4 -23 -8 -1 -5 -52 -35 -112 -68 -228 -124 -251
-137 -258 -148 -4 -6 -8 -8 -8 -3 0 4 -18 -4 -40 -18 -22 -14 -44 -25 -50 -25
-5 0 -10 -4 -10 -10 0 -5 -5 -10 -10 -10 -6 0 -58 -26 -116 -57 -134 -73 -149
-98 -103 -164 10 -14 16 -29 12 -33 -3 -3 -1 -6 5 -6 7 0 12 -4 12 -10 0 -5
31 -65 69 -132 38 -68 85 -154 106 -193 40 -77 65 -105 91 -105 15 0 77 31
204 103 19 11 64 35 100 55 36 19 70 38 75 42 6 4 41 24 78 44 37 20 82 45
100 55 18 10 68 37 112 61 44 24 116 63 160 88 44 25 100 56 125 69 25 13 52
28 60 33 17 11 213 118 325 179 17 9 32 18 35 21 3 3 16 11 30 17 28 14 123
66 190 104 60 35 231 130 302 168 87 47 102 55 121 70 9 8 17 10 17 5 0 -5 4
-4 8 1 4 6 16 15 27 21 11 6 56 30 100 54 44 24 111 60 148 82 38 21 70 38 72
38 2 0 42 22 90 50 48 28 89 50 92 50 3 0 18 9 34 21 16 11 29 17 29 12 0 -4
4 -3 8 2 4 6 16 15 27 21 11 6 47 26 80 44 33 18 76 42 95 53 124 68 127 77
73 179 -21 40 -41 75 -44 78 -3 3 -17 28 -31 55 -14 28 -39 75 -57 105 -17 30
-43 79 -58 107 -38 74 -64 103 -95 109 -16 2 -28 1 -28 -3z"/>
<path d="M2845 3122 c-49 -26 -92 -49 -95 -52 -13 -13 -70 -40 -70 -33 0 4 -4
3 -8 -3 -6 -9 -157 -95 -312 -176 -30 -16 -68 -37 -85 -47 -16 -10 -79 -44
-140 -76 -60 -32 -114 -61 -120 -65 -9 -7 -110 -61 -217 -117 -18 -10 -35 -20
-38 -23 -3 -3 -18 -12 -35 -20 -16 -8 -59 -31 -95 -51 -36 -20 -105 -58 -155
-84 -49 -26 -94 -51 -100 -55 -5 -4 -55 -31 -110 -60 -55 -29 -130 -70 -167
-91 -36 -22 -69 -39 -71 -39 -3 0 -49 -25 -102 -55 -54 -30 -101 -55 -106 -55
-13 0 -37 -53 -31 -70 2 -8 11 -23 20 -32 8 -10 12 -18 7 -18 -4 0 -3 -6 3
-12 10 -14 38 -61 81 -141 14 -27 33 -61 41 -76 8 -15 39 -70 68 -123 28 -52
59 -101 67 -108 24 -20 60 -7 210 75 147 81 203 111 350 190 50 27 93 53 96
58 3 5 10 9 15 9 13 1 38 11 44 17 3 3 25 16 50 29 117 61 146 77 163 91 9 8
17 11 17 7 0 -4 12 1 28 12 15 10 70 42 122 69 52 28 115 62 140 75 89 49 266
146 345 188 44 23 85 46 90 50 6 4 48 27 95 52 98 52 203 109 275 148 28 15
68 37 91 49 22 12 51 32 63 45 l22 23 -51 94 c-27 52 -55 105 -62 119 -7 14
-37 67 -65 118 -29 52 -53 97 -53 100 0 4 -9 18 -20 32 -11 14 -20 31 -20 39
0 20 -31 40 -60 40 -14 -1 -65 -22 -115 -47z"/>
<path d="M4960 3023 c-8 -3 -17 -9 -20 -12 -3 -3 -48 -28 -100 -54 -52 -27
-113 -58 -135 -71 -22 -12 -69 -38 -105 -57 -36 -19 -67 -36 -70 -39 -5 -5
-58 -35 -130 -72 -25 -13 -47 -25 -50 -28 -3 -3 -25 -15 -50 -28 -25 -12 -52
-27 -60 -32 -17 -11 -495 -276 -605 -335 -74 -40 -200 -110 -225 -125 -8 -5
-37 -21 -65 -36 -135 -71 -140 -79 -97 -162 54 -103 67 -127 72 -132 3 -3 16
-25 28 -50 105 -201 154 -282 179 -291 21 -7 55 7 163 68 20 11 71 39 115 63
44 23 85 46 90 50 6 4 48 28 95 53 84 44 124 66 245 134 33 19 68 37 78 40 9
3 17 10 17 15 0 5 4 7 9 3 5 -3 12 -1 15 4 3 5 39 26 78 46 40 21 81 44 91 53
9 8 17 12 17 8 0 -3 18 5 40 19 22 14 42 25 44 25 3 0 47 24 98 54 51 29 125
70 163 91 39 20 88 47 110 59 22 12 81 44 130 71 110 59 165 95 179 117 8 14
4 31 -22 80 -19 35 -48 90 -65 123 -18 33 -35 62 -39 63 -5 2 -8 8 -8 14 0 5
-9 23 -21 39 -11 16 -17 29 -13 29 4 0 1 8 -7 18 -8 9 -28 42 -43 72 -56 108
-81 130 -126 113z"/>
<path d="M8210 2312 c-40 -20 -265 -141 -295 -158 -11 -7 -40 -22 -65 -35 -25
-12 -47 -25 -50 -28 -3 -3 -18 -13 -35 -21 -16 -8 -70 -38 -120 -66 -49 -27
-121 -67 -160 -89 -38 -21 -222 -123 -408 -227 -187 -103 -343 -188 -348 -188
-5 0 -9 -4 -9 -10 0 -5 -5 -10 -10 -10 -6 0 -61 -28 -123 -63 -62 -35 -152
-85 -202 -112 -49 -26 -92 -51 -95 -54 -3 -3 -25 -17 -50 -29 -122 -64 -145
-76 -150 -82 -3 -3 -18 -12 -35 -20 -16 -8 -93 -50 -170 -93 -77 -44 -167 -94
-200 -112 -33 -17 -112 -61 -175 -96 -63 -35 -132 -73 -153 -84 -22 -11 -45
-32 -52 -46 -15 -28 -18 -22 57 -159 135 -249 213 -386 222 -392 20 -14 55 -8
93 14 159 90 394 218 402 218 5 0 11 4 13 8 2 5 41 29 88 54 47 25 103 55 125
68 22 12 58 32 80 43 22 12 48 28 58 36 9 8 17 10 17 5 0 -5 4 -4 8 1 8 11 8
11 133 78 47 26 130 71 184 102 54 30 101 55 106 55 5 0 9 5 9 12 0 6 3 8 6 5
4 -4 19 2 33 11 14 10 37 23 51 30 14 7 39 21 57 31 17 11 67 38 110 62 43 23
83 45 88 49 6 4 46 26 90 50 44 23 88 50 98 58 9 8 17 12 17 9 0 -4 22 7 50
23 42 25 277 155 423 234 23 12 58 32 77 43 20 11 71 39 115 63 44 24 83 48
87 54 4 6 8 8 8 4 0 -4 26 8 58 26 66 38 132 75 217 122 33 18 67 44 75 57 13
23 13 29 -2 59 -23 44 -144 264 -205 373 -19 33 -39 72 -46 87 -6 15 -18 29
-26 32 -9 3 -20 8 -26 11 -5 2 -26 -4 -45 -13z"/>
<path d="M2925 1896 c-22 -12 -83 -44 -135 -71 -52 -28 -97 -52 -100 -55 -3
-3 -25 -15 -50 -28 -25 -12 -72 -37 -105 -55 -33 -19 -91 -51 -130 -72 -38
-21 -113 -61 -165 -90 -52 -29 -124 -68 -160 -87 -105 -57 -183 -99 -220 -120
-195 -107 -237 -130 -252 -135 -10 -3 -18 -9 -18 -14 0 -5 -9 -9 -19 -9 -11 0
-21 -4 -23 -8 -1 -5 -37 -26 -78 -47 -41 -22 -92 -49 -112 -62 -21 -13 -38
-20 -38 -16 0 5 -4 3 -8 -3 -4 -5 -45 -31 -92 -56 -47 -25 -101 -54 -120 -65
-19 -11 -75 -41 -124 -67 -103 -55 -138 -76 -148 -91 -15 -21 -7 -58 25 -113
18 -31 39 -70 47 -87 8 -16 17 -32 20 -35 3 -3 17 -27 32 -55 14 -27 42 -79
62 -115 20 -36 45 -83 57 -105 11 -22 31 -45 45 -52 26 -12 47 -3 253 111 46
25 85 46 87 46 2 0 26 14 54 30 28 17 95 53 148 82 53 28 115 62 137 75 22 12
47 26 55 30 8 4 85 45 170 91 85 47 189 103 230 125 41 22 98 53 125 68 28 16
64 35 80 43 17 8 66 34 110 59 44 24 112 61 150 82 39 21 84 46 100 55 17 10
59 33 95 52 36 20 99 53 140 76 41 22 108 58 148 80 91 48 112 66 112 93 0 18
-44 113 -60 129 -3 3 -17 28 -31 55 -51 99 -112 210 -129 235 -10 14 -20 35
-24 46 -11 34 -53 74 -78 73 -13 0 -41 -10 -63 -23z"/>
<path d="M4970 1811 c-19 -9 -37 -19 -40 -22 -3 -3 -61 -35 -130 -71 -69 -36
-141 -74 -160 -84 -19 -11 -36 -22 -38 -26 -2 -5 -8 -8 -13 -8 -5 0 -26 -11
-47 -24 -20 -12 -40 -24 -45 -24 -4 -1 -17 -8 -30 -15 -51 -32 -210 -117 -218
-117 -5 0 -9 -3 -9 -8 0 -4 -13 -13 -29 -20 -16 -7 -75 -39 -132 -70 -97 -54
-160 -89 -284 -157 -27 -15 -89 -49 -136 -76 -48 -27 -90 -49 -94 -49 -5 0
-16 -6 -24 -14 -9 -7 -47 -30 -86 -51 -169 -90 -190 -103 -199 -128 -8 -22 4
-50 87 -202 54 -97 97 -180 97 -186 0 -5 3 -9 8 -9 4 0 17 -22 30 -50 27 -59
68 -110 89 -110 15 0 79 33 323 168 74 41 155 86 180 99 25 14 51 30 58 35 6
6 12 7 12 4 0 -4 12 1 28 12 15 10 63 38 107 62 44 23 94 50 110 60 17 10 55
31 85 47 30 17 71 39 90 50 41 23 139 76 260 141 47 25 87 48 90 51 3 4 34 21
70 40 36 18 92 48 125 67 33 18 80 44 105 56 25 13 47 25 50 28 3 3 18 13 35
22 36 20 48 57 29 90 -7 12 -16 30 -20 38 -4 8 -26 49 -49 90 -23 41 -61 111
-85 155 -24 44 -52 96 -63 115 -11 19 -26 47 -34 62 -20 38 -59 49 -103 29z"/>
</g>
</svg>
